<svg width="18.000000" height="18.000000" viewBox="0 0 18 18" fill="none" xmlns="http://www.w3.org/2000/svg" xmlns:xlink="http://www.w3.org/1999/xlink">
	<desc>
			Created with Pixso.
	</desc>
	<defs/>
	<g opacity="0.000000">
		<path id="Vector" d="M0 0L18 0L18 18L0 18L0 0Z" fill="#FFBF00" fill-opacity="1.000000" fill-rule="evenodd"/>
	</g>
	<path id="Vector" d="M11.54 3.9L12.6 6.02C12.74 6.31 13.12 6.59 13.44 6.65L15.36 6.96C16.58 7.16 16.86 8.05 15.99 8.93L14.49 10.43C14.25 10.68 14.1 11.16 14.18 11.52L14.61 13.36C14.95 14.82 14.17 15.39 12.89 14.62L11.1 13.56C10.77 13.36 10.23 13.36 9.91 13.56L8.12 14.62C6.83 15.38 6.05 14.82 6.39 13.36L6.82 11.52C6.89 11.16 6.75 10.67 6.5 10.42L5.01 8.93C4.13 8.05 4.41 7.16 5.64 6.95L7.55 6.64C7.87 6.59 8.25 6.3 8.39 6.01L9.45 3.89C10.03 2.75 10.96 2.75 11.54 3.9Z" fill="#FFBF00" fill-opacity="1.000000" fill-rule="nonzero"/>
	<path id="Vector" d="M6 4.31L1.5 4.31C1.19 4.31 0.93 4.05 0.93 3.75C0.93 3.44 1.19 3.18 1.5 3.18L6 3.18C6.3 3.18 6.56 3.44 6.56 3.75C6.56 4.05 6.3 4.31 6 4.31Z" fill="#FFBF00" fill-opacity="1.000000" fill-rule="nonzero"/>
	<path id="Vector" d="M3.75 14.81L1.5 14.81C1.19 14.81 0.93 14.55 0.93 14.25C0.93 13.94 1.19 13.68 1.5 13.68L3.75 13.68C4.05 13.68 4.31 13.94 4.31 14.25C4.31 14.55 4.05 14.81 3.75 14.81Z" fill="#FFBF00" fill-opacity="1.000000" fill-rule="nonzero"/>
	<path id="Vector" d="M2.25 9.56L1.5 9.56C1.19 9.56 0.93 9.3 0.93 9C0.93 8.69 1.19 8.43 1.5 8.43L2.25 8.43C2.55 8.43 2.81 8.69 2.81 9C2.81 9.3 2.55 9.56 2.25 9.56Z" fill="#FFBF00" fill-opacity="1.000000" fill-rule="nonzero"/>
</svg>
