<svg width="44.000000" height="44.000000" viewBox="0 0 44 44" fill="none" xmlns="http://www.w3.org/2000/svg" xmlns:xlink="http://www.w3.org/1999/xlink">
	<desc>
			Created with Pixso.
	</desc>
	<defs>
		<clipPath id="clip14_24">
			<rect id="circum:instagram" width="44.000000" height="44.000000" fill="white" fill-opacity="0"/>
		</clipPath>
	</defs>
	<rect id="circum:instagram" width="44.000000" height="44.000000" fill="#FFFFFF" fill-opacity="0"/>
	<g clip-path="url(#clip14_24)">
		<path id="Vector" d="M33.8 38.38L10.19 38.38C8.98 38.38 7.81 37.9 6.95 37.04C6.09 36.18 5.61 35.01 5.61 33.8L5.61 10.19C5.61 8.98 6.09 7.81 6.95 6.95C7.81 6.09 8.98 5.61 10.19 5.61L33.8 5.61C35.01 5.61 36.18 6.09 37.04 6.95C37.9 7.81 38.38 8.98 38.38 10.19L38.38 33.8C38.38 35.01 37.9 36.18 37.04 37.04C36.18 37.9 35.01 38.38 33.8 38.38ZM10.19 7.44C9.46 7.44 8.77 7.73 8.25 8.25C7.73 8.76 7.44 9.46 7.44 10.19L7.44 33.8C7.44 34.53 7.73 35.22 8.25 35.74C8.77 36.26 9.46 36.55 10.19 36.55L33.8 36.55C34.53 36.55 35.23 36.26 35.74 35.74C36.26 35.22 36.55 34.53 36.55 33.8L36.55 10.19C36.55 9.46 36.26 8.76 35.74 8.25C35.23 7.73 34.53 7.44 33.8 7.44L10.19 7.44Z" fill="#5C686D" fill-opacity="1.000000" fill-rule="nonzero"/>
		<path id="Vector" d="M22 30.42C20.33 30.42 18.7 29.92 17.32 28.99C15.93 28.07 14.85 26.75 14.22 25.21C13.58 23.67 13.42 21.98 13.74 20.34C14.07 18.71 14.87 17.21 16.05 16.03C17.23 14.86 18.73 14.05 20.37 13.73C22 13.41 23.69 13.57 25.23 14.21C26.77 14.85 28.09 15.93 29.01 17.32C29.94 18.7 30.43 20.33 30.43 22C30.43 24.23 29.54 26.37 27.95 27.95C26.37 29.53 24.23 30.42 22 30.42ZM22 15.4C20.69 15.4 19.42 15.78 18.34 16.51C17.25 17.23 16.41 18.26 15.91 19.47C15.42 20.67 15.29 22 15.54 23.27C15.8 24.55 16.42 25.73 17.34 26.65C18.26 27.57 19.44 28.2 20.72 28.45C21.99 28.7 23.32 28.57 24.52 28.08C25.73 27.58 26.76 26.74 27.48 25.65C28.21 24.57 28.59 23.3 28.6 22C28.6 20.24 27.9 18.57 26.66 17.33C25.42 16.09 23.75 15.4 22 15.4Z" fill="#5C686D" fill-opacity="1.000000" fill-rule="nonzero"/>
		<path id="Vector" d="M33.5 12.52C33.5 13.61 32.62 14.49 31.53 14.49C30.44 14.49 29.56 13.61 29.56 12.52C29.56 11.43 30.44 10.55 31.53 10.55C32.62 10.55 33.5 11.43 33.5 12.52Z" fill="#5C686D" fill-opacity="1.000000" fill-rule="evenodd"/>
	</g>
</svg>
