<svg width="44.000000" height="44.000000" viewBox="0 0 44 44" fill="none" xmlns="http://www.w3.org/2000/svg" xmlns:xlink="http://www.w3.org/1999/xlink">
	<desc>
			Created with Pixso.
	</desc>
	<defs>
		<clipPath id="clip29_15">
			<rect id="iconoir:facebook-tag" width="44.000000" height="44.000000" fill="white" fill-opacity="0"/>
		</clipPath>
	</defs>
	<rect id="iconoir:facebook-tag" width="44.000000" height="44.000000" fill="#FFFFFF" fill-opacity="0"/>
	<g clip-path="url(#clip29_15)">
		<path id="Vector" d="M38.5 29.33C38.5 31.76 37.53 34.09 35.81 35.81C34.09 37.53 31.76 38.5 29.33 38.5L14.66 38.5C12.23 38.5 9.9 37.53 8.18 35.81C6.46 34.09 5.5 31.76 5.5 29.33L5.5 14.66C5.5 12.23 6.46 9.9 8.18 8.18C9.9 6.46 12.23 5.5 14.66 5.5L29.33 5.5C31.76 5.5 34.09 6.46 35.81 8.18C37.53 9.9 38.5 12.23 38.5 14.66L38.5 29.33Z" stroke="#5C686D" stroke-opacity="1.000000" stroke-width="1.500000" stroke-linejoin="round"/>
		<path id="Vector" d="M20.16 38.5L20.16 22C20.16 17.98 21.08 14.66 27.5 14.66M16.5 23.83L27.5 23.83" stroke="#5C686D" stroke-opacity="1.000000" stroke-width="1.500000" stroke-linejoin="round"/>
	</g>
</svg>
