<svg width="44.000000" height="44.000000" viewBox="0 0 44 44" fill="none" xmlns="http://www.w3.org/2000/svg" xmlns:xlink="http://www.w3.org/1999/xlink">
	<desc>
			Created with Pixso.
	</desc>
	<defs>
		<clipPath id="clip14_22">
			<rect id="uit:youtube" width="44.000000" height="44.000000" fill="white" fill-opacity="0"/>
		</clipPath>
	</defs>
	<rect id="uit:youtube" width="44.000000" height="44.000000" fill="#FFFFFF" fill-opacity="0"/>
	<g clip-path="url(#clip14_22)">
		<path id="Vector" d="M27.11 19.75L20.39 15.88C19.99 15.65 19.55 15.53 19.09 15.53C18.64 15.53 18.19 15.65 17.79 15.88C17.4 16.11 17.07 16.43 16.84 16.83C16.62 17.22 16.5 17.67 16.5 18.13L16.5 25.87C16.49 26.79 16.98 27.65 17.79 28.11C18.18 28.34 18.63 28.46 19.09 28.46C19.55 28.46 20 28.34 20.39 28.11L27.11 24.24C27.51 24.02 27.84 23.69 28.06 23.29C28.29 22.9 28.41 22.45 28.41 22C28.41 21.54 28.29 21.09 28.06 20.7C27.84 20.31 27.51 19.98 27.11 19.75L27.11 19.75ZM26.2 22.65L19.48 26.52C19.36 26.59 19.23 26.63 19.09 26.63C18.96 26.63 18.82 26.59 18.71 26.52C18.59 26.46 18.49 26.36 18.43 26.25C18.36 26.13 18.33 26 18.33 25.86L18.33 18.13C18.33 17.99 18.36 17.86 18.43 17.75C18.5 17.63 18.59 17.53 18.71 17.47C18.82 17.4 18.96 17.36 19.09 17.36C19.23 17.36 19.36 17.4 19.47 17.47L26.2 21.34C26.31 21.41 26.41 21.5 26.48 21.62C26.54 21.73 26.58 21.86 26.58 22C26.58 22.13 26.54 22.26 26.48 22.38C26.41 22.49 26.31 22.58 26.2 22.65ZM34.83 7.33L9.16 7.33C7.7 7.33 6.31 7.91 5.27 8.94C4.24 9.97 3.66 11.37 3.66 12.83L3.66 31.16C3.66 32.62 4.24 34.02 5.27 35.05C6.31 36.08 7.7 36.66 9.16 36.66L34.83 36.66C36.29 36.66 37.68 36.08 38.72 35.05C39.75 34.02 40.33 32.62 40.33 31.16L40.33 12.83C40.33 11.37 39.75 9.97 38.72 8.94C37.68 7.91 36.29 7.33 34.83 7.33ZM38.5 31.16C38.49 32.13 38.11 33.07 37.42 33.75C36.73 34.44 35.8 34.83 34.83 34.83L9.16 34.83C8.19 34.83 7.26 34.44 6.57 33.75C5.88 33.07 5.5 32.13 5.5 31.16L5.5 12.83C5.5 11.86 5.88 10.92 6.57 10.24C7.26 9.55 8.19 9.16 9.16 9.16L34.83 9.16C35.8 9.16 36.73 9.55 37.42 10.24C38.11 10.92 38.49 11.86 38.5 12.83L38.5 31.16Z" fill="#5C686D" fill-opacity="1.000000" fill-rule="nonzero"/>
	</g>
</svg>
